<svg xmlns="http://www.w3.org/2000/svg" viewBox="0 249 655 766">
    <path fill="#6180D2" d="M392 988L392 988Q343 988 293 973.5 243 959 197 929.5 151 900 115.5 856.5 80 813 59 755.5 38 698 38 628L38 628Q38 559 59 503.5 80 448 115.5 406 151 364 196.5 336 242 308 292.5 293.5 343 279 393 278L393 278Q444 278 481 289 518 300 541 312.5 564 325 572 330L572 330Q588 340 602.5 352.5 617 365 618 383L618 383Q619 395 615 404.5 611 414 604 424L604 424Q592 441 580 449 568 457 556 457L556 457Q545 457 535.5 451 526 445 512 436L512 436Q506 432 490.5 423.5 475 415 449.5 408 424 401 388 401L388 401Q345 401 304 416 263 431 230.5 460.5 198 490 179 533.5 160 577 160 633L160 633Q160 689 179 732.5 198 776 230.5 805.5 263 835 304 850 345 865 388 865L388 865Q422 865 446.5 858.5 471 852 488.5 842.5 506 833 515 828L515 828Q526 821 536 815 546 809 557 809L557 809Q569 809 580.5 817 592 825 603 843L603 843Q610 854 614 864 618 874 617 885L617 885Q616 903 601.5 915.5 587 928 571 937L571 937Q563 942 540.5 954.5 518 967 481 977.5 444 988 392 988Z"></path>
</svg>
